<?xml version="1.0" encoding="UTF-8"?>
<svg width="512pt" height="512pt" version="1.1" viewBox="0 0 512 512"
  xmlns="http://www.w3.org/2000/svg">
  <path
    d="m226.93 145.12c0-6.9023 2.7422-13.52 7.625-18.402 4.8789-4.8789 11.5-7.6211 18.402-7.6211 6.9023 0 13.52 2.7422 18.402 7.6211 4.8789 4.8828 7.6211 11.5 7.6211 18.402s-2.7422 13.523-7.625 18.402c-4.8789 4.8828-11.5 7.625-18.402 7.625-6.9023-0.003907-13.52-2.7422-18.398-7.625-4.8828-4.8789-7.625-11.5-7.625-18.402zm66.719 221.99c-7.3633-2.3594-16.367-9.2852-16.367-29.031v-129.65c0.003906-0.92969-0.36719-1.8203-1.0234-2.4805-0.65625-0.65625-1.5469-1.0273-2.4766-1.0273h-51.684c-3.4922 0-6.8438 1.3906-9.3125 3.8594-2.4688 2.4727-3.8594 5.8242-3.8555 9.3164 0.046875 5.8086 3.8594 10.918 9.418 12.617 7.3633 2.3594 16.367 9.2852 16.367 29.031l-0.003906 78.336c0 19.746-9.0039 26.672-16.371 29.031h0.003906c-5.5586 1.6992-9.3711 6.8086-9.418 12.617 0 3.4922 1.3867 6.8438 3.8594 9.3164 2.4688 2.4688 5.8203 3.8555 9.3125 3.8555h67.797c7.2734 0 13.172-5.8945 13.172-13.172-0.046874-5.8086-3.8594-10.918-9.418-12.617zm192.75-111.11c0 61.105-24.273 119.71-67.48 162.92s-101.81 67.48-162.92 67.48-119.71-24.273-162.92-67.48-67.48-101.81-67.48-162.92 24.273-119.71 67.48-162.92 101.81-67.48 162.92-67.48c61.086 0.066407 119.65 24.363 162.84 67.559 43.195 43.191 67.492 101.75 67.559 162.84zm-30.719 0c0-52.957-21.039-103.75-58.484-141.2-37.449-37.445-88.238-58.484-141.2-58.484s-103.75 21.039-141.2 58.484c-37.445 37.449-58.484 88.238-58.484 141.2s21.039 103.75 58.484 141.2c37.449 37.445 88.238 58.484 141.2 58.484 52.941-0.058594 103.7-21.117 141.13-58.551s58.492-88.188 58.551-141.13z"
    fill='#FF6B00'
  />
</svg>