<svg width="520" height="1760" viewBox="0 0 520 1760" fill="none" xmlns="http://www.w3.org/2000/svg">
<path d="M520 260C520 403.594 403.594 520 260 520C116.406 520 0 403.594 0 260C0 116.406 116.406 0 260 0C403.594 0 520 116.406 520 260Z" fill="black"/>
<path d="M520 880C520 1023.59 403.594 1140 260 1140C116.406 1140 0 1023.59 0 880C0 736.406 116.406 620 260 620C403.594 620 520 736.406 520 880Z" fill="black"/>
<path d="M520 1500C520 1643.59 403.594 1760 260 1760C116.406 1760 0 1643.59 0 1500C0 1356.41 116.406 1240 260 1240C403.594 1240 520 1356.41 520 1500Z" fill="black"/>
</svg>
