<?xml version="1.0" encoding="UTF-8"?>
<svg width="512pt" height="512pt" version="1.1" viewBox="0 0 512 512"
  xmlns="http://www.w3.org/2000/svg" fill='#FF6B00'>
  <g>
    <path
      d="m278.48 212.99c-3.3242-0.98047-6.7734-1.4805-10.238-1.4844-18.328 0-33.176 17.305-33.176 37.582 0 9.1641 4.5586 15.871 13.773 15.871 12.082 0 23.141-15.359 25.602-28.363z" />
    <path
      d="m403.66 165.27v-51.199h-61.898l-63.898-52.633c-5.5898-4.5977-12.602-7.1133-19.84-7.1133-7.2383 0-14.25 2.5156-19.84 7.1133l-64.105 52.785h-68.043v56.32l-79.055 64.973v238.9 0.71875 2.5586c1.1367 2.6562 3.5156 4.5742 6.3516 5.1211h448.72-0.003906c2.8359-0.54688 5.2148-2.4648 6.3516-5.1211v-2.5586-0.71875-238.9zm0 8.6523 71.68 59.289-71.68 37.785zm-161.23-107.37c4.3906-3.6133 9.9023-5.5938 15.59-5.5938s11.199 1.9805 15.59 5.5938l57.652 47.668h-146.48zm30.719 191.18c-7.4258 12.445-17.152 18.742-29.543 18.742s-22.527-9.832-22.527-26.316c-0.054687-13.137 5.1367-25.746 14.426-35.035 9.2852-9.2852 21.898-14.48 35.031-14.426 7.6484-0.19922 15.25 1.1953 22.324 4.0977l-7.0664 37.785c-3.125 15.871-0.61328 23.141 6.2461 23.348 10.648 0 22.527-13.977 22.527-38.195 0-30.258-18.176-51.969-50.484-51.969-33.996 0-62.566 26.93-62.566 69.273 0 34.867 22.734 56.32 53.605 56.32h0.003906c10.973 0.29688 21.84-2.1875 31.59-7.2188l3.3281 8.9609c-11.465 5.8789-24.238 8.75-37.117 8.3438-34.355 0.050781-63.488-24.984-63.488-65.074 0-43.008 29.848-80.129 76.188-80.129 36.301 0 60.723 25.602 60.723 60.312 0 31.281-17.512 49.664-37.121 49.664-8.3438 0-16.078-5.6328-15.359-18.379zm-167.12-78.539v88.473l-65.535-34.457zm-72.398 284.37v-222.93c0-0.77734 0.41016-1.4961 1.0781-1.8945 0.35547-0.14844 0.74219-0.19922 1.125-0.15234 0.35547 0 0.70703 0.085938 1.0234 0.25391l214.02 112.49-200.7 105.52-12.699 6.6562-3.8398 1.9961zm448.72-6.6562v17.562-0.003906c0.007812 0.10547 0.007812 0.20703 0 0.30859v0.61328c-0.30469 0.75781-1.0273 1.2578-1.8438 1.2812h-444.67c-0.8125-0.023437-1.5391-0.52344-1.8438-1.2812v-0.61328c-0.003906-0.10156-0.003906-0.20312 0-0.30859-0.058594-0.84375 0.41016-1.6367 1.1797-1.9961l16.945-8.9102 12.699-6.6562 193.18-101.78 7.168-3.7891 213.91-112.64c0.31641-0.16797 0.66797-0.25781 1.0234-0.25781 0.41406-0.007812 0.82031 0.097656 1.1797 0.30859 0.66797 0.39844 1.0742 1.1172 1.0742 1.8945z" />
  </g>
</svg>