<?xml version="1.0" encoding="UTF-8"?>
<svg width="512pt" height="512pt" version="1.1" viewBox="0 0 512 512"
  xmlns="http://www.w3.org/2000/svg">
  <g fill='#E00000'>
    <path
      d="m363.01 115.2h82.434c-1.5352-2.5586-3.5859-5.1211-6.1445-7.6797l-81.41-81.406c-2.0469-2.0469-4.6094-4.0977-7.6797-6.1445v81.922c0 7.6758 5.6328 13.309 12.801 13.309z" />
    <path
      d="m243.2 194.05c-0.51172-1.0234-1.5352-2.0469-4.6094-2.0469-3.0703 0-3.5859 1.0234-3.5859 1.5352-3.0703 7.168 0.51172 23.039 7.6797 39.938 4.6133-21.504 4.1016-34.305 0.51562-39.426z" />
    <path
      d="m363.01 149.5c-26.113 0-47.105-20.992-47.105-47.105v-89.598h-210.43c-12.289 0-23.551 4.6094-32.258 13.312-8.7031 8.7031-13.312 19.969-13.312 32.258v394.75c0 25.09 20.48 45.566 45.566 45.566h301.57c25.09 0 45.566-20.48 45.566-45.566l0.011719-303.62zm1.5352 188.93c-7.168 7.168-16.895 11.266-26.625 11.266-14.336 0-31.23-8.1914-50.176-23.551-10.238 2.0469-21.504 5.1211-34.816 8.7031-11.266 3.0703-20.992 6.6562-29.695 9.7266-15.359 27.648-35.328 55.809-54.273 60.414-2.0469 0.51172-4.0977 1.0234-6.1445 1.0234-5.1211 0-9.7266-1.5352-13.824-5.1211-6.6562-5.6328-9.7266-13.312-8.1914-21.504 4.0977-20.992 37.887-38.91 68.609-51.199 4.0977-7.6797 7.6797-15.871 11.266-24.062 6.1445-15.359 11.266-29.184 14.848-40.961-14.336-26.625-26.113-59.391-17.922-77.312 4.0977-8.7031 11.777-13.824 22.016-13.824 9.2148 0 16.383 3.5859 20.992 10.754 9.2148 13.312 7.6797 39.426-3.5859 78.336 5.1211 8.7031 10.754 16.895 15.871 22.527 7.168 7.6797 14.336 14.848 20.992 20.48 40.961-7.168 68.098-4.0977 76.289 9.2148 1.0273 3.0703 5.6367 13.312-5.6289 25.09z" />
    <path
      d="m248.32 285.7c-3.0703 8.1914-6.1445 16.895-9.7266 26.113-1.0234 2.5586-2.0469 4.6094-3.0703 7.168 4.6094-1.5352 8.1914-2.5586 11.777-3.5859 7.6797-2.0469 15.359-4.0977 22.016-6.1445-4.0977-3.5859-7.6797-7.6797-11.777-12.289-2.5625-2.5586-5.6367-6.6523-9.2188-11.262z" />
    <path
      d="m159.74 383.49c1.5352 2.5586 2.0469 2.5586 3.5859 2.5586 7.168-2.0469 17.406-12.289 27.648-27.648-20.48 10.242-30.207 19.969-31.234 25.09z" />
    <path
      d="m315.39 321.02c8.7031 5.1211 16.383 8.1914 23.039 8.1914 5.6328 0.51172 9.7266-1.0234 12.289-5.1211 2.5625-4.0938-10.75-5.6289-35.328-3.0703z" />
  </g>
</svg>