<?xml version="1.0" encoding="UTF-8"?>
<svg width="100pt" height="100pt" version="1.1" viewBox="0 0 100 100" xmlns="http://www.w3.org/2000/svg">
 <g>
  <path d="m92.949 82.441-24.953-24.953-2.2656 2.2695-5.2734-5.2773c4.4531-5.3984 7.1328-12.316 7.1328-19.848 0-17.227-14.016-31.242-31.242-31.242-17.227 0-31.242 14.016-31.242 31.242 0 17.227 14.016 31.242 31.242 31.242 7.3945 0 14.191-2.5859 19.547-6.8945l5.3086 5.3086-2.2656 2.2656 24.949 24.949c1.25 1.25 2.8906 1.8789 4.5312 1.8789s3.2773-0.625 4.5312-1.8789c2.5-2.5 2.5-6.5586 0-9.0625zm-81.438-47.805c0-13.691 11.141-24.836 24.832-24.836 13.695 0 24.836 11.141 24.836 24.836 0 13.691-11.141 24.832-24.836 24.832-13.691 0-24.832-11.141-24.832-24.832z"/>
  <path d="m47.895 23.016c5.9805 5.9766 8.6602 13.805 7.8164 20.742 1.1133-2.6133 1.7305-5.4883 1.7305-8.5117 0-11.992-9.7188-21.711-21.711-21.711-2.9141 0-5.6914 0.57812-8.2305 1.6172 6.8477-0.71094 14.516 1.9883 20.395 7.8633z"/>
 </g>
</svg>
