<?xml version="1.0" encoding="UTF-8"?>
<svg width="512pt" height="512pt" version="1.1" viewBox="0 0 512 512"
  xmlns="http://www.w3.org/2000/svg">
  <path
    d="m407.55 226.82c-5.6328 0-11.266 0.51172-16.895 1.5352-4.6094-70.656-62.977-126.46-134.66-126.46-64 0-117.25 44.543-131.07 103.94-3.0703-0.51172-6.1445-0.51172-9.2148-0.51172-56.836-0.51172-102.91 45.566-102.91 102.4 0 56.832 46.078 102.91 102.91 102.91h111.62v-98.301h-37.887c-9.2148 0-14.848-10.754-9.2148-18.434l66.559-90.625c4.6094-6.1445 13.824-6.1445 18.434 0l66.559 90.625c5.6328 7.6797 0 18.434-9.2148 18.434h-37.887v98.305h121.86c50.688 0 91.648-40.961 91.648-91.648 1.0195-51.199-39.941-92.16-90.629-92.16z"
    fill="#E95A17" />
</svg>