<svg width="447" height="447" viewBox="0 0 447 447" fill="none" xmlns="http://www.w3.org/2000/svg">
<path d="M447 223.5C447 346.936 346.936 447 223.5 447C100.064 447 0 346.936 0 223.5C0 100.064 100.064 0 223.5 0C346.936 0 447 100.064 447 223.5Z" fill="white"/>
<path fill-rule="evenodd" clip-rule="evenodd" d="M220.741 26.8806C110.335 26.8806 21.3621 115.853 21.3621 226.259C21.3621 336.665 110.335 425.638 220.741 425.638C331.147 425.638 420.12 336.665 420.12 226.259C420.12 115.853 331.147 26.8806 220.741 26.8806ZM148.922 255.2H159.64C176.792 266.993 198.228 273.423 220.741 273.423C243.25 273.423 264.69 266.992 281.842 255.2H292.56C320.43 255.2 345.085 271.279 355.803 294.863C331.148 344.172 279.697 377.402 220.739 377.402C161.782 377.402 110.333 344.172 85.6758 294.863C96.3939 271.279 121.051 255.2 148.922 255.2ZM220.741 92.2706C260.403 92.2706 292.56 123.357 292.56 163.019C292.56 202.681 260.403 234.838 220.741 234.838C181.078 234.838 148.922 202.681 148.922 163.019C148.922 123.357 181.078 92.2706 220.741 92.2706Z" fill="#686FB7"/>
</svg>
